<svg id="Layer_1" data-name="Layer 1" xmlns="http://www.w3.org/2000/svg" viewBox="0 0 298.12 254"><defs><style>.cls-1{fill:none;stroke:#e3828a;stroke-miterlimit:10;stroke-width:4px;}</style></defs><title>icon</title><path class="cls-1" d="M2,128.85a4,4,0,0,1,3.89-4.31c14.31-.44,61.74-1.82,85.63-1.81,4.1,0,5.06,1,4.84,5.18-1.25,23.53-19.57,43-41.78,45.13a47.77,47.77,0,0,1-52-37.9C2.45,134.4,2.2,131.44,2,128.85Z"/><path class="cls-1" d="M49,65.79c-3.46,5.46-6.8,10.69-10.11,15.94q-9.72,15.43-19.43,30.89c-2.27,3.6-5.74,4.71-8.73,2.85-3.17-2-3.74-5.51-1.37-9.3Q25.46,80.49,41.62,54.83c.5-.8,1-1.61,1.61-2.66l-2.31-.62a9.49,9.49,0,0,1-7.06-9.64,9.32,9.32,0,0,1,8.53-8.64c1-.1,2.11-.06,3.16-.06q31.62,0,63.25,0a4.74,4.74,0,0,0,4.35-2,27.32,27.32,0,0,1,12.36-9A3.73,3.73,0,0,0,128.25,19a21.06,21.06,0,0,1,41.34,0,3.75,3.75,0,0,0,2.74,3.16,27.7,27.7,0,0,1,12.37,9.06,4.71,4.71,0,0,0,4.34,2q31.76-.08,63.53,0c1,0,1.93,0,2.88,0A9.34,9.34,0,0,1,264,41.9a9.44,9.44,0,0,1-7.32,9.69c-.55.14-1.1.24-2.07.45.62,1.06,1.1,1.93,1.63,2.77q16,25.43,31.94,50.87a11,11,0,0,1,1.72,4.46c.28,2.77-1.21,4.78-3.79,5.8s-5.48.06-7.22-2.62c-3.48-5.38-6.86-10.84-10.28-16.27L249.76,67.13a16.38,16.38,0,0,0-1.08-1.33c-2,3.08-3.85,5.94-5.67,8.84q-11.49,18.24-22.95,36.49c-.56.89-1.1,1.81-1.74,2.64a6,6,0,0,1-9.93-6.56c3.43-5.65,7-11.21,10.53-16.8q11.47-18.25,23-36.49c.3-.48.54-1,1.05-1.94-1.3-.07-2.28-.16-3.27-.16-25.1,0-50.21,0-75.32-.07-2.83,0-3.47.86-3.47,3.57q.12,86,0,171.92c0,2.74.68,3.65,3.49,3.54,5.35-.21,10.73-.15,16.09,0a21.3,21.3,0,0,1,21,18.14c.35,2.17.08,3.12-2.46,3.11q-50-.1-100.05,0c-2.48,0-2.85-.87-2.5-3.08a21.36,21.36,0,0,1,21-18.17c5.46-.12,10.93-.16,16.39,0,2.54.08,3.22-.69,3.21-3.22q-.12-53.06-.05-106.09V52H55.06c.48.93.8,1.67,1.23,2.35q16,25.42,32,50.85c.46.73,1,1.44,1.35,2.21a6,6,0,0,1-1.93,7.87,5.75,5.75,0,0,1-8-1.34c-1.66-2.22-3-4.64-4.53-7Q62.86,87.42,50.5,67.85C50.11,67.23,49.63,66.66,49,65.79Z"/><path class="cls-1" d="M248.56,173.26a47.3,47.3,0,0,1-47.1-45.51c-.18-3.94.81-5,4.72-5q42.52,0,85,0c4.14,0,5,1,4.9,5.14C295.47,152.88,273.87,173.5,248.56,173.26Z"/></svg>