<svg id="Layer_1" data-name="Layer 1" xmlns="http://www.w3.org/2000/svg" viewBox="0 0 246.99 247.43"><defs><style>.cls-1{fill:#e3828a;}</style></defs><title>icon</title><path class="cls-1" d="M113.46,247.43a18.84,18.84,0,0,0-3.45-.87c-25.63-3.59-47.33-12.41-64.5-26.22s-30.4-33.08-39.33-57.28c-2.27-6.15-3.53-12.83-4.87-19.9-1-5.5-4.22-38.36,5.83-61.67C23.19,39.18,54,12.56,98.79,2.32a8.47,8.47,0,0,1,1.95-.25c1.66,0,2.25.49,2.63,2.18.22,1,.53,2.36-3.8,3.36-43.28,10-72.74,35.57-87.58,76A118,118,0,0,0,91.25,237.28a121.42,121.42,0,0,0,32,4.32c56.31,0,104.9-40,115.52-95.06,8.76-45.39-4.46-80.48-40.45-115.11-.64-.54-9-9-9-9l-10.74,11.4L165.36,0c6.7,1.11,27.7,6.24,38.19,8.86l-10.18,9.42S205.69,30.69,208.73,34c6.16,6.76,12,13.14,16.64,20a123.26,123.26,0,0,1,11.3,119.08c-17.12,39.21-52.84,66.52-95.55,73-1.87.29-3.72.62-5.58,1l-1.82.32Z"/><path class="cls-1" d="M131.66,159.53c-24.48,0-42.18-.5-48.57-1.36-17.57-2.38-29.82-18.6-28.5-37.72,1.22-17.64,16.6-32.22,34.29-32.5,12.05-.2,23.84-.3,35.05-.3,11.76,0,23.35.11,34.43.33,18.33.35,33.73,16.62,33.64,35.51-.09,19.21-15.41,35.26-34.15,35.79C153.66,159.4,143.68,159.53,131.66,159.53Zm-16.58-5.67h24.45l14.21,0a58.77,58.77,0,0,0,6.76-.38c14.2-1.64,25.36-13.92,26-28.57.65-15.73-10.26-29.52-24.32-30.74-4.65-.4-9.64-.58-15.69-.58-3.88,0-7.82.07-11.62.15s-7.7.14-11.54.14h-8.21Z"/></svg>