<svg id="Layer_1" data-name="Layer 1" xmlns="http://www.w3.org/2000/svg" viewBox="0 0 161.18 250"><defs><style>.cls-1{fill:#e3828a;}</style></defs><title>icon</title><path class="cls-1" d="M12,250l-.73-.21a20.75,20.75,0,0,1-2.64-.88C3.06,246.32.39,242.34,0,236c0-.32,0-.65,0-1V188.87Q0,102.14,0,15.4C0,7.75,3.73,2.35,10.22.58A16.46,16.46,0,0,1,14.46,0Q53.86,0,93.3,0l53.43,0c8.22,0,14,5.62,14.43,14,0,.44,0,.89,0,1.34V35.21q0,99.6,0,199.2c0,5.2-1.59,12-9.19,14.73-.74.26-1.6.51-2.51.78l-.29.08Zm78-5.54,6.6,0c8.3-.07,14.54-6.05,14.5-13.91s-6.3-13.83-14.58-13.85l-16,0-16,0a15,15,0,0,0-10.07,3.71A13.49,13.49,0,0,0,50,230.61c0,7.81,6.27,13.76,14.53,13.83l6.47,0H90.07ZM5.7,210.93H155.43V15a9.3,9.3,0,0,0-9.3-9.3H14.65a9,9,0,0,0-8.95,9Z"/><path class="cls-1" d="M19.52,113.77a61.07,61.07,0,1,1,61,61.24A61.21,61.21,0,0,1,19.52,113.77Zm66.67-10.92v-20c0-.69,0-1.39,0-2.08C85.91,77.29,83.68,75,80.6,75S75.18,77.29,75,80.7s0,6.59,0,9.89q0,16.53,0,33.06c0,2.26.37,4.35,2.33,5.78A5.26,5.26,0,0,0,83,130a5.65,5.65,0,0,0,3.22-5.53C86.2,117.25,86.18,110.05,86.19,102.85ZM80.62,152.7a5.5,5.5,0,0,0,5.52-5.38,5.56,5.56,0,0,0-11.11-.2A5.52,5.52,0,0,0,80.62,152.7Z"/><path class="cls-1" d="M80.61,36c-2,0-4,.1-6,0a5.23,5.23,0,0,1-5.07-5.23,5.27,5.27,0,0,1,4.9-5.67c4.07-.2,8.15-.19,12.22,0a5.27,5.27,0,0,1,4.94,5.64,5.24,5.24,0,0,1-5,5.27C84.6,36.11,82.6,36,80.61,36Z"/><path class="cls-1" d="M130.67,36A5.53,5.53,0,0,1,125,30.48a5.56,5.56,0,0,1,11.11.11A5.52,5.52,0,0,1,130.67,36Z"/></svg>