<svg id="Layer_1" data-name="Layer 1" xmlns="http://www.w3.org/2000/svg" viewBox="0 0 214.39 250"><defs><style>.cls-1{fill:#e3828a;}</style></defs><title>icon</title><path class="cls-1" d="M200.09,250a2.44,2.44,0,0,1-2.44-2.44v-9.5H16.73v9.5A2.43,2.43,0,0,1,14.3,250H2.49a2.44,2.44,0,0,1-2.44-2.44L0,8.37a8.37,8.37,0,1,1,16.73,0V71.18h14.9V14.33a2.44,2.44,0,0,1,2.44-2.44H97.31a2.45,2.45,0,0,1,2.44,2.44V71.18h14.9V14.33a2.44,2.44,0,0,1,2.43-2.44h63.25a2.44,2.44,0,0,1,2.43,2.44V71.18h14.89V8.37a8.37,8.37,0,1,1,16.74,0V247.56A2.44,2.44,0,0,1,212,250Zm9.42-4.87V8.37a3.5,3.5,0,1,0-7,0V245.13Zm-197.65,0V8.37a3.5,3.5,0,1,0-7,0l.06,236.76Zm185.79-11.95v-7H16.73v7Zm0-11.87V162.93H16.73v58.38h14.9V184.26a2.44,2.44,0,0,1,2.44-2.44h71.17a2.45,2.45,0,0,1,2.44,2.44v37.05h14.87V172.39A2.43,2.43,0,0,1,125,170h55.36a2.43,2.43,0,0,1,2.44,2.43v48.92Zm-19.74,0V174.83H163v9.45a2.44,2.44,0,0,1-2.44,2.44H144.75a2.44,2.44,0,0,1-2.43-2.44v-9.45h-14.9v46.48Zm-75.11,0V186.69H80v9.45a2.43,2.43,0,0,1-2.43,2.44H61.73a2.44,2.44,0,0,1-2.44-2.44v-9.45H36.5v34.62Zm-27.69-27.6v-7h-11v7Zm83-11.87v-7H147.19v7Zm39.51-23.79v-7H16.73v7ZM177.9,146.19V103.65H119.51v9.43a2.43,2.43,0,0,1-2.43,2.43H97.31a2.43,2.43,0,0,1-2.44-2.43v-9.43H36.49v42.54Zm-146.29,0v-45a2.44,2.44,0,0,1,2.44-2.43H180.34a2.43,2.43,0,0,1,2.43,2.43v45h14.88V87.91H16.73v58.28Zm83-35.55v-7H99.75v7Zm83-27.6v-7H16.73v7ZM177.89,71.18V16.77H159.05v9.45a2.44,2.44,0,0,1-2.44,2.44H140.79a2.44,2.44,0,0,1-2.44-2.44V16.77H119.52V71.18Zm-83,0V16.77H76v9.45a2.43,2.43,0,0,1-2.43,2.44H57.77a2.43,2.43,0,0,1-2.43-2.44V16.77H36.5V71.18Zm59.31-47.39v-7h-11v7Zm-83,0v-7H60.21v7Z"/></svg>