<svg id="Layer_1" data-name="Layer 1" xmlns="http://www.w3.org/2000/svg" viewBox="0 0 249.99 250"><defs><style>.cls-1{fill:#e3828a;}</style></defs><title>icon</title><path class="cls-1" d="M0,250V214.05l.41-.4L24.09,190q40.3-40.29,80.62-80.56A8.84,8.84,0,0,0,107,99.21,73.72,73.72,0,0,1,165,.86,75.59,75.59,0,0,1,176.3,0a73.78,73.78,0,0,1,10.15,146.84,76.42,76.42,0,0,1-10.4.73,71.63,71.63,0,0,1-25.78-4.82,9.27,9.27,0,0,0-3.38-.69,7.75,7.75,0,0,0-5.76,2.66c-1.7,1.78-3.5,3.58-5.25,5.32-1.91,1.9-3.89,3.87-5.8,5.9a10.59,10.59,0,0,0-2.76,6.85c-.08,7.48-.07,15.08-.07,22.43v5h-3.63l-7.53,0c-4.27,0-7.76,0-11-.07h-.22a7.57,7.57,0,0,0-5.53,2,7.65,7.65,0,0,0-2,5.74c.07,5.81.06,11.74,0,17.47,0,1.55,0,3.1,0,4.64H67.74V250ZM116.8,106q-18,18-36,36c-21.89,21.88-44.52,44.51-66.91,66.62-4.17,4.13-8.82,10.07-7.66,19.52A45.61,45.61,0,0,1,6.34,235c0,1.22-.07,2.45-.07,3.69v5H61.5V214h30V184.1H121.2v-7.87c0-1.72,0-3.44,0-5.16,0-4.86,0-9.88.08-14.78a1.36,1.36,0,0,1,.18-.42c3.29-3.36,6.76-6.82,10.11-10.17,4.08-4.07,8.29-8.28,12.38-12.51a66.86,66.86,0,0,0,32.15,8.22,72.83,72.83,0,0,0,7.48-.4,67.59,67.59,0,0,0,59.17-79.18C237.61,33.6,214.66,11,186.92,6.92a72.74,72.74,0,0,0-10.5-.77,67.12,67.12,0,0,0-60.18,36.43C105.58,63.44,105.77,84.79,116.8,106Z"/><path class="cls-1" d="M188.58,84.83a23.44,23.44,0,0,1,0-46.87A23.16,23.16,0,0,1,212,61.26,23.42,23.42,0,0,1,205.15,78a23.09,23.09,0,0,1-16.44,6.86Zm-.14-42.78a19.4,19.4,0,0,0-19.11,19.2A19.32,19.32,0,0,0,188.6,80.67h0a19.36,19.36,0,0,0,19.32-19.38A19.34,19.34,0,0,0,188.67,42Z"/></svg>