<svg id="Layer_1" data-name="Layer 1" xmlns="http://www.w3.org/2000/svg" viewBox="0 0 265.11 255"><defs><style>.cls-1{fill:none;stroke:#e3828a;stroke-miterlimit:10;stroke-width:5px;}</style></defs><title>icon</title><path class="cls-1" d="M262.61,79.72a45.75,45.75,0,0,1-2.4,6.36C256.46,93,250.55,96.5,242.69,96.7c-2.1,0-4.2,0-6.32,0-.22,1-.39,1.87-.57,2.69a13.86,13.86,0,0,1-13.48,11.29q-18.15.15-36.31,0c-7.51-.06-12.52-5.06-14.12-14-1.86,0-3.79,0-5.71,0-12-.14-20.45-8.51-20.49-20.5q-.09-24.51,0-49C145.74,15.49,154.2,7.06,165.91,7Q204,7,242.08,7c10.3,0,17.6,5.81,20.12,15.88a5.75,5.75,0,0,0,.41.92ZM204.19,82c12.35,0,24.71,0,37.07,0,5.09,0,7-1.84,7-6.83q0-23.48,0-47c0-4.93-2-6.86-7-6.87H167.1c-5.16,0-7.07,1.91-7.07,7q0,22.86,0,45.71c0,6.5,1.43,8,7.85,8Z"/><path class="cls-1" d="M171.58,206.23q0-14.59,0-29.19c0-10.46,6.49-17,16.88-17s21,0,31.48,0c10.08,0,16.73,6.67,16.74,16.7q0,29.57,0,59.14c0,9.9-6.65,16.57-16.55,16.61q-16,.06-32,0c-10,0-16.53-6.6-16.57-16.55S171.58,216.13,171.58,206.23Zm39.82,28a7,7,0,1,0-7.13,7A7,7,0,0,0,211.4,234.21Z"/><path class="cls-1" d="M79.56,181.36c7.14-4.13,14.63-4.92,22.34-1.72a24.22,24.22,0,0,1,14.79,24.58c-1.22,10.93-9.67,20.28-20.26,22.34a23.88,23.88,0,0,1-4.53.49c-22.59.06-45.19.13-67.78.07-11.86,0-21.08-8.64-21.6-19.87a21.09,21.09,0,0,1,21-22.25,2.39,2.39,0,0,0,2.69-1.86c4.21-11.24,12.27-18,24.27-19,12.67-1.07,22,4.6,28.05,15.74.2.37.36.76.57,1.12C79.19,181.11,79.36,181.19,79.56,181.36Z"/><path class="cls-1" d="M55.58,108.59H38.06c-10,0-16-5.64-16.75-15.53C20,74.25,32.84,58.32,51.32,56A34,34,0,0,1,89,83.9a37.67,37.67,0,0,1,.09,11.85c-1.06,7.73-7.09,12.69-15,12.82C67.94,108.67,61.76,108.59,55.58,108.59Z"/><path class="cls-1" d="M31.26,26.81a24.19,24.19,0,1,1,24.36,24A24.14,24.14,0,0,1,31.26,26.81Z"/><path class="cls-1" d="M66,136.59c0,2.37.06,4.74,0,7.11-.16,6.12-4.6,10.71-10.47,10.89a10.45,10.45,0,0,1-11-10,133.16,133.16,0,0,1,0-16.23,10.57,10.57,0,0,1,11.08-9.93,10.87,10.87,0,0,1,10.36,10.8C66,131.69,66,134.14,66,136.59Z"/><path class="cls-1" d="M193.54,136.58c0-2.45,0-4.91,0-7.36a10.84,10.84,0,0,1,10.61-10.79A10.6,10.6,0,0,1,215,128.64a155.52,155.52,0,0,1,0,15.72,10.47,10.47,0,0,1-11,10.23,10.77,10.77,0,0,1-10.44-10.91C193.5,141.32,193.54,139,193.54,136.58Z"/><path class="cls-1" d="M142.35,173.23c2.37,0,4.74-.06,7.11,0a10.78,10.78,0,0,1,10.76,10.61,10.51,10.51,0,0,1-10.17,10.85,151.92,151.92,0,0,1-16,0,10.6,10.6,0,0,1-10.05-11,10.85,10.85,0,0,1,10.71-10.44C137.28,173.16,139.82,173.23,142.35,173.23Z"/><path class="cls-1" d="M115.93,73.26c-2.53,0-5.07.1-7.61,0a10.72,10.72,0,0,1,.31-21.43c5-.1,10-.11,15,0a10.72,10.72,0,0,1,.2,21.44C121.18,73.36,118.56,73.27,115.93,73.26Z"/></svg>