<svg id="Layer_1" data-name="Layer 1" xmlns="http://www.w3.org/2000/svg" viewBox="0 0 249.56 250"><defs><style>.cls-1{fill:#e3828a;}</style></defs><title>icon</title><path class="cls-1" d="M.7,245.58c.83-5.25,1.65-10.5,2.52-15.75,2.69-16.25,4.8-28.77,6.85-40.61a4.31,4.31,0,0,1,1-2.14C72.39,125.72,134.66,63.46,194.88,3.24L197.79.33,249.56,52.1l-.37.37L237.51,64.16c-57,57.05-116,116-174.15,174.06a6.85,6.85,0,0,1-3.4,1.72c-15.09,2.58-30.67,5.18-44.42,7.47L0,250Zm4.1-.49,26-4.31L9.08,219.18Zm10-56c-.09.23-.2.46-.3.7a9.53,9.53,0,0,0-.78,2.26c-1,5.63-2.11,12.19-3.09,18.75A5.63,5.63,0,0,0,12,215.17c3.79,3.86,7.62,7.69,11.45,11.52q5.46,5.48,10.92,11a5.4,5.4,0,0,0,4,1.84,6.32,6.32,0,0,0,1.19-.12c3.17-.56,6.35-1.09,9.53-1.62,3-.49,6-1,8.91-1.51a8.56,8.56,0,0,0,2.32-.87c.23-.12.46-.24.69-.34l1.46-.63-.69-3.49-1.2-.31c-.62-.16-1.25-.31-1.88-.45A34,34,0,0,1,54.5,229a2.14,2.14,0,0,1-1-1,80.14,80.14,0,0,1-2.22-8.71,5.06,5.06,0,0,0-4.39-4.43c-1.51-.29-3-.69-4.52-1.08s-2.92-.76-4.43-1.07c-.62-.12-.7-.16-.86-.87l-.11-.47c-.67-3-1.36-6.09-2.29-9.1a5.76,5.76,0,0,0-3.45-3.44,63,63,0,0,0-9-2.28c-1.17-.2-1.44-.49-1.65-1.72a39.78,39.78,0,0,0-1-3.94c-.15-.53-.3-1.06-.44-1.59L18.88,188l-3.6-.29ZM198.93,69.16c-.12.14-.24.31-.37.49a11.57,11.57,0,0,1-.87,1.07c-45.71,45.72-93,93-140.38,140.29-2.11,2.11-2.73,4.09-2.27,7.3.79,5.63,3.72,8.54,9.23,9.14.63.06,1.1.09,1.53.09a6.15,6.15,0,0,0,4.65-1.95c50.87-51,101.89-102,140.66-140.71a7.39,7.39,0,0,1,1.27-.88c.29-.17.57-.34.82-.51l2-1.35-14.9-14.7ZM182.68,52.92c-.16.2-.32.43-.49.68a9.28,9.28,0,0,1-1,1.31l-9.32,9.32C129.41,106.7,85.52,150.61,41.67,194.29c-2.69,2.68-3.42,5.24-2.6,9.13.94,4.39,3.21,6.62,7.6,7.43a12,12,0,0,0,2.15.23,7,7,0,0,0,5.26-2.36c39.18-39.29,78.5-78.6,116.52-116.62L194.71,68c.46-.46.91-.94,1.29-1.35l1.75-1.83-13.7-13.7Zm-16.1-16.1c-.18.23-.34.47-.51.71a8.5,8.5,0,0,1-.82,1.07C113,90.83,69.52,134.35,24.49,179.28c-2.32,2.31-2.23,4.58-1.94,6.7.73,5.4,3.49,8.18,8.67,8.75a14.37,14.37,0,0,0,1.6.1,6.59,6.59,0,0,0,5-2.12c46.28-46.37,93-93.12,140.87-140.93a6.79,6.79,0,0,1,1-.75c.23-.16.41-.27.56-.39l1.86-1.35L168,35Zm5.75-4.62,45.28,45.33,25.76-25.77L198,6.37Z"/><polygon class="cls-1" points="0.13 46.76 46.84 0 110.76 63.88 108.47 66.02 47.64 5.14 6.01 46.81 20.61 61.51 44.05 38.01 46.75 40.99 23.36 64.38 38.3 79.52 53.02 64.73 56.01 67.64 41.24 82.3 56.11 97.15 79.62 73.66 82.22 76.77 58.47 100.41 67.04 108.01 64.25 110.89 0.13 46.76"/><polygon class="cls-1" points="138.98 185.6 141.51 183.19 145.59 187.06 160.27 172.25 163.3 175.22 148.72 189.69 163.86 204.72 187.34 181.18 189.99 183.9 166.48 207.32 181.53 222.36 195.87 207.91 198.74 211.07 184.43 225.27 199.45 240.17 240.85 198.83 183.34 141.44 186.04 138.84 246.38 199.18 199.45 246.08 138.98 185.6"/></svg>