<svg id="Layer_1" data-name="Layer 1" xmlns="http://www.w3.org/2000/svg" viewBox="0 0 250.26 250"><defs><style>.cls-1{fill:#e3828a;}</style></defs><title>icon</title><path class="cls-1" d="M2.53,250c-.43,0-1.36-.62-2.42-2A3.37,3.37,0,0,1,0,246.62c0-.27,0-.53,0-.77q0-120.34,0-240.68c0-.31,0-.62,0-.93C0,1.75.07.33,2.47,0l.35,0c.62,0,1.91,0,1.92,5.05V45.62H34c3,0,6.89,0,10.84-.13a7.83,7.83,0,0,0,5-2.12C70.18,22.56,94.46,10.69,122,8.13c4.3-.4,8.58-.6,12.73-.6,33.76,0,62.76,13.2,86.21,39.24,20.38,22.64,30.22,49.83,29.26,80.82-1.72,55.39-42.34,102-96.57,110.78a131.61,131.61,0,0,1-21,1.75c-30.95,0-58.72-12-82.53-35.74a6.78,6.78,0,0,0-4.12-2.13c-8.26-.09-16.32-.1-23.12-.1H7.21a5.8,5.8,0,0,0-1,.13l-.75.14-.69.11v13.88q0,14.4,0,28.79c0,.3,0,.6,0,.91a3.58,3.58,0,0,1-.11,1.7C3.91,249.14,3,250,2.54,250ZM134.05,12.12c-61.52,0-111.66,50.14-111.78,111.76-.11,61.35,50,111.39,111.77,111.56h.3c61.22,0,111.15-50,111.31-111.45A111.83,111.83,0,0,0,134.14,12.12ZM5,197.16H42.84L42,195.88c-16.33-24-24.61-48.23-24.62-72.11s8.27-48.11,24.59-72l.87-1.28H5Z"/></svg>