<svg id="Layer_1" data-name="Layer 1" xmlns="http://www.w3.org/2000/svg" viewBox="0 0 160.54 256"><defs><style>.cls-1{fill:#e3828a;}</style></defs><title>icon</title><path class="cls-1" d="M17.54,253c-9.8,0-15.65-5.88-15.66-15.71q0-97.68,0-195.34c0-9.72,5.79-15.56,15.5-15.62l7.26,0H42.72V23.09c0-.94,0-1.87,0-2.78,0-2,.08-4-.08-6.1C42.24,8.38,44.28,4.9,49.28,3H111c.36.2.73.39,1.1.58a18.54,18.54,0,0,1,3.19,1.91c1.72,1.43,2.55,3.53,2.53,6.44,0,2.48,0,5,0,7.55V26l3.07.15,1,.06c.69.05,1.35.09,2,.09h12.19l7.08,0c9.7.06,15.5,5.9,15.5,15.62q0,97.67,0,195.34c0,9.83-5.85,15.7-15.66,15.71H17.54Zm.8-221.47c-8,0-11.28,3.26-11.28,11.26q0,96.89,0,193.79c0,7.9,3.39,11.27,11.33,11.27H142.07c8.11,0,11.42-3.31,11.42-11.44V42.86c0-8-3.25-11.33-11.21-11.33H18.34Z"/><polygon class="cls-1" points="81.98 142.28 50.72 142.28 89.51 92.45 78.56 131.21 109.84 131.21 71.03 181.04 81.98 142.28"/></svg>